<?xml version="1.0" encoding="utf-8"?>
<!-- Generator: Adobe Illustrator 22.0.1, SVG Export Plug-In . SVG Version: 6.00 Build 0)  -->
<svg version="1.1" id="Layer_1" xmlns="http://www.w3.org/2000/svg" xmlns:xlink="http://www.w3.org/1999/xlink" x="0px" y="0px"
	 viewBox="0 0 21.3 21.3" style="enable-background:new 0 0 21.3 21.3;" xml:space="preserve">
<style type="text/css">
	.st0{fill:#ECB71A;}
</style>
<g>
	<g>
		<path class="st0" d="M10.7,0c1.9,0,3.7,0.5,5.3,1.4s2.9,2.3,3.9,3.9c1,1.6,1.4,3.4,1.4,5.3c0,1.9-0.5,3.7-1.4,5.3
			c-1,1.6-2.3,2.9-3.9,3.9s-3.4,1.4-5.3,1.4c-1.9,0-3.7-0.5-5.3-1.4S2.4,17.6,1.4,16c-1-1.6-1.4-3.4-1.4-5.3C0,8.7,0.5,7,1.4,5.3
			c1-1.6,2.3-2.9,3.9-3.9S8.7,0,10.7,0z M10.7,19.9c1.7,0,3.2-0.4,4.7-1.2s2.5-2,3.4-3.4c0.8-1.4,1.2-3,1.2-4.7
			c0-1.7-0.4-3.2-1.2-4.6c-0.8-1.4-2-2.5-3.4-3.4c-1.4-0.8-3-1.2-4.7-1.2S7.4,1.8,6,2.6S3.5,4.6,2.6,6c-0.8,1.4-1.2,3-1.2,4.7
			c0,1.7,0.4,3.2,1.2,4.6c0.8,1.4,2,2.5,3.4,3.4C7.4,19.5,9,19.9,10.7,19.9z M16.8,8.1c0.1-0.1,0.1-0.2,0.1-0.3s0-0.3-0.1-0.4
			L16.4,7c-0.1-0.1-0.2-0.2-0.3-0.2c-0.1,0-0.3,0-0.4,0.1l-7,7l-3-3c-0.1-0.1-0.2-0.1-0.4-0.1c-0.1,0-0.3,0-0.3,0.1l-0.4,0.3
			c-0.1,0.1-0.1,0.2-0.1,0.4s0,0.3,0.1,0.3l3.7,3.7C8.4,15.9,8.5,16,8.6,16c0.1,0,0.3-0.1,0.3-0.2L16.8,8.1z"/>
	</g>
</g>
</svg>
