<?xml version="1.0" encoding="utf-8"?>
<!-- Generator: Adobe Illustrator 22.0.1, SVG Export Plug-In . SVG Version: 6.00 Build 0)  -->
<svg version="1.1" id="Layer_1" xmlns="http://www.w3.org/2000/svg" xmlns:xlink="http://www.w3.org/1999/xlink" x="0px" y="0px"
	 viewBox="0 0 18.9 18.9" style="enable-background:new 0 0 18.9 18.9;" xml:space="preserve">
<style type="text/css">
	.st0{fill:#ECB71A;}
</style>
<path class="st0" d="M17.8,0c0.3,0,0.5,0.1,0.7,0.3s0.3,0.5,0.3,0.7v16.8c0,0.3-0.1,0.5-0.3,0.7c-0.2,0.2-0.5,0.3-0.7,0.3H13v-7.3
	h2.4l0.4-2.8H13V6.9c0-0.5,0.1-0.8,0.3-1c0.2-0.2,0.6-0.3,1.1-0.3l1.5,0V3c-0.5-0.1-1.2-0.1-2.2-0.1c-1.1,0-2,0.3-2.7,1
	s-1,1.6-1,2.8v2.1H7.6v2.8h2.5v7.3H1c-0.3,0-0.5-0.1-0.7-0.3C0.1,18.3,0,18.1,0,17.8V1c0-0.3,0.1-0.5,0.3-0.7C0.5,0.1,0.8,0,1,0
	H17.8z"/>
</svg>
