<?xml version="1.0" encoding="utf-8"?>
<!-- Generator: Adobe Illustrator 22.0.1, SVG Export Plug-In . SVG Version: 6.00 Build 0)  -->
<svg version="1.1" id="Layer_1" xmlns="http://www.w3.org/2000/svg" xmlns:xlink="http://www.w3.org/1999/xlink" x="0px" y="0px"
	 viewBox="0 0 18.5 18.9" style="enable-background:new 0 0 18.5 18.9;" xml:space="preserve">
<style type="text/css">
	.st0{fill:#ECB71A;}
</style>
<path class="st0" d="M9.4,8.1h8.9c0.1,0.5,0.1,1.1,0.1,1.6c0,1.8-0.4,3.4-1.1,4.8c-0.7,1.4-1.8,2.5-3.2,3.3c-1.4,0.8-3,1.2-4.7,1.2
	c-1.3,0-2.5-0.2-3.7-0.7c-1.2-0.5-2.2-1.2-3-2c-0.8-0.8-1.5-1.8-2-3S0,10.7,0,9.4c0-1.3,0.2-2.5,0.7-3.7s1.2-2.2,2-3
	c0.8-0.8,1.8-1.5,3-2C6.9,0.2,8.1,0,9.4,0c2.5,0,4.6,0.8,6.3,2.5l-2.6,2.5c-1-1-2.3-1.5-3.8-1.5c-1.1,0-2,0.3-2.9,0.8
	C5.6,4.8,4.9,5.5,4.4,6.4c-0.5,0.9-0.8,1.9-0.8,3c0,1.1,0.3,2.1,0.8,3c0.5,0.9,1.2,1.6,2.1,2.2c0.9,0.5,1.9,0.8,2.9,0.8
	c0.7,0,1.4-0.1,2-0.3c0.6-0.2,1.1-0.4,1.5-0.7c0.4-0.3,0.7-0.6,1-1c0.3-0.4,0.5-0.7,0.6-1.1c0.1-0.3,0.2-0.7,0.3-1H9.4V8.1z"/>
</svg>
