<?xml version="1.0" encoding="utf-8"?>
<!-- Generator: Adobe Illustrator 22.0.1, SVG Export Plug-In . SVG Version: 6.00 Build 0)  -->
<svg version="1.1" id="Layer_1" xmlns="http://www.w3.org/2000/svg" xmlns:xlink="http://www.w3.org/1999/xlink" x="0px" y="0px"
	 viewBox="0 0 18.9 18" style="enable-background:new 0 0 18.9 18;" xml:space="preserve">
<style type="text/css">
	.st0{fill:#ECB71A;}
</style>
<path class="st0" d="M4.5,2.1c0,0.6-0.2,1.1-0.6,1.5C3.5,4,2.9,4.2,2.3,4.2h0C1.6,4.2,1,4,0.6,3.6C0.2,3.2,0,2.7,0,2.1
	C0,1.5,0.2,1,0.6,0.6C1.1,0.2,1.6,0,2.3,0C3,0,3.5,0.2,3.9,0.6C4.3,1,4.5,1.5,4.5,2.1z M4.3,5.9V18H0.2V5.9H4.3z M18.9,11v7h-4v-6.5
	c0-0.9-0.2-1.5-0.5-2C14,9,13.5,8.8,12.8,8.8c-0.5,0-0.9,0.1-1.3,0.4c-0.3,0.3-0.6,0.6-0.8,1c-0.1,0.2-0.1,0.6-0.1,1V18h-4
	c0-3.3,0-5.9,0-7.9c0-2,0-3.2,0-3.6l0-0.6h4v1.8h0c0.2-0.3,0.3-0.5,0.5-0.7c0.2-0.2,0.4-0.4,0.7-0.6c0.3-0.2,0.6-0.4,1.1-0.5
	c0.4-0.1,0.9-0.2,1.4-0.2c1.4,0,2.5,0.5,3.4,1.4C18.4,7.9,18.9,9.3,18.9,11z"/>
</svg>
