<?xml version="1.0" encoding="utf-8"?>
<!-- Generator: Adobe Illustrator 22.0.1, SVG Export Plug-In . SVG Version: 6.00 Build 0)  -->
<svg version="1.1" id="Layer_1" xmlns="http://www.w3.org/2000/svg" xmlns:xlink="http://www.w3.org/1999/xlink" x="0px" y="0px"
	 viewBox="0 0 170.3 85.9" style="enable-background:new 0 0 170.3 85.9;" xml:space="preserve">
<style type="text/css">
	.st0{fill:#2B2B2B;}
	.st1{fill:#FCB315;}
	.st2{fill:#FFFFFF;}
	.st3{fill:none;stroke:#2D2D2D;stroke-width:0.6726;stroke-miterlimit:10;}
	.st4{opacity:0.2;}
	.st5{clip-path:url(#SVGID_2_);}
	.st6{fill:#2D2D2D;}
	.st7{fill:none;stroke:#FCB315;stroke-width:1.3361;stroke-miterlimit:10;}
	.st8{fill:#565656;}
	.st9{fill:#3F3F3F;}
	.st10{fill:#E63F43;}
	.st11{filter:url(#Adobe_OpacityMaskFilter);}
	.st12{clip-path:url(#SVGID_6_);fill:url(#SVGID_8_);}
	.st13{clip-path:url(#SVGID_6_);mask:url(#SVGID_7_);fill:url(#SVGID_9_);}
	.st14{filter:url(#Adobe_OpacityMaskFilter_1_);}
	.st15{clip-path:url(#SVGID_11_);fill:url(#SVGID_13_);}
	.st16{clip-path:url(#SVGID_11_);mask:url(#SVGID_12_);fill:url(#SVGID_14_);}
	.st17{fill:#D99C13;}
	.st18{fill:none;stroke:#FCB315;stroke-width:0.668;stroke-miterlimit:10;}
	.st19{clip-path:url(#SVGID_16_);fill:none;stroke:#FCB315;stroke-width:0.668;stroke-miterlimit:10;}
	.st20{fill:#FFFAFC;}
	.st21{fill:#2C2F2F;}
	.st22{fill:#1D1E26;}
</style>
<g>
	<path class="st0" d="M52.1,41.6c-1.4-4.8-5.3-7-5.5-7.2c-0.2-0.2-0.9-9.4,1.4-12.5c2.3-3.1,1.6-5.8,1.6-5.8
		c-3.3,2.5-8,3.7-13.3,3.7c-5.2,0-9.5-1.2-12.7-3.7c0,0-0.8,2.8,1.6,5.8c2.3,3.1,1.7,12.2,1.4,12.5c-0.2,0.2-4.1,2.4-5.5,7.2
		c-1.4,4.8,2.2,10.1,5.2,12.9c3,2.8,9.9,7.1,9.9,7.1c0.6,0,7.7-4.3,10.7-7.1C49.9,51.8,53.5,46.4,52.1,41.6"/>
	<path class="st1" d="M46.6,34.5l3.1-14c0,0-0.7,0-3-0.2c-2.3-0.2-4.9,0.4-7.2,2c-2.1,1.4-2.8,3.6-3,4c-0.1-0.4-0.7-2.6-2.8-4
		c-2.3-1.6-4.9-2.2-7.2-2c-2.3,0.2-3,0.2-3,0.2l3.1,14l-0.9,0.6c0,0-0.2,7,1,12.2c1.2,5.1,3.2,13.4,9.6,15.5h0
		c6.5-2.2,9-10.5,10.2-15.5c1.2-5.2,1-12.2,1-12.2L46.6,34.5z"/>
	<polygon class="st0" points="25.1,10.1 24.7,17.9 36.4,21.3 47.2,18.8 47.4,11.3 	"/>
	<path class="st0" d="M35.1,14.8L15,6.3c-0.1-0.1-0.1-0.3,0-0.3l21-5.2c0,0,0.1,0,0.1,0l21.4,8c0.1,0.1,0.1,0.3,0,0.3l-22.2,5.7
		C35.1,14.9,35.1,14.9,35.1,14.8"/>
	<path class="st1" d="M37.5,6.8c0-0.4-0.7-0.7-1.7-0.7c-0.9,0-1.7,0.3-1.7,0.7c0,0.4,0.7,0.7,1.7,0.7C36.7,7.5,37.5,7.2,37.5,6.8"/>
	<path class="st1" d="M19.1,16.2c0,0-1.8,1.8-2.9,3.3c-1.1,1.5-1.1,4.3-0.4,5.4c0.7,1.1,5.5-0.9,5.5-1.7c0-0.8-1.3-0.5-1.7-3.2
		C19.1,17.3,20,14.9,19.1,16.2"/>
	<path class="st1" d="M21.3,14.8c0-0.9-0.7-1.7-1.7-1.7c-0.9,0-1.7,0.7-1.7,1.7c0,0.9,0.7,1.7,1.7,1.7
		C20.6,16.4,21.3,15.7,21.3,14.8"/>
	<path class="st2" d="M35.2,26.7c0-3-2.7-5.4-6.1-5.4S23,23.7,23,26.7c0,3,2.7,5.4,6.1,5.4S35.2,29.7,35.2,26.7"/>
	<path class="st3" d="M35.2,26.7c0-3-2.7-5.4-6.1-5.4S23,23.7,23,26.7c0,3,2.7,5.4,6.1,5.4S35.2,29.7,35.2,26.7z"/>
	<g class="st4">
		<g>
			<defs>
				<rect id="SVGID_1_" x="24.8" y="21.9" width="9.8" height="9.1"/>
			</defs>
			<clipPath id="SVGID_2_">
				<use xlink:href="#SVGID_1_"  style="overflow:visible;"/>
			</clipPath>
			<g class="st5">
				<defs>
					<rect id="SVGID_3_" x="24.8" y="21.9" width="9.8" height="9.1"/>
				</defs>
				<clipPath id="SVGID_4_">
					<use xlink:href="#SVGID_3_"  style="overflow:visible;"/>
				</clipPath>
				<g style="clip-path:url(#SVGID_4_);">
					
						<image style="overflow:visible;" width="13" height="12" xlink:href="2D638D3621FA9C42.png"  transform="matrix(0.7557 0 0 0.7557 24.762 21.923)">
					</image>
				</g>
			</g>
		</g>
	</g>
	<path class="st6" d="M32.9,26.2c0-1.5-1.4-2.8-3.1-2.8s-3.1,1.2-3.1,2.8c0,1.5,1.4,2.8,3.1,2.8S32.9,27.7,32.9,26.2"/>
	<path class="st2" d="M50.3,26.7c0-3-2.7-5.4-6.1-5.4c-3.4,0-6.1,2.4-6.1,5.4c0,3,2.7,5.4,6.1,5.4C47.5,32.1,50.3,29.7,50.3,26.7"/>
	<path class="st3" d="M50.3,26.7c0-3-2.7-5.4-6.1-5.4c-3.4,0-6.1,2.4-6.1,5.4c0,3,2.7,5.4,6.1,5.4C47.5,32.1,50.3,29.7,50.3,26.7z"
		/>
	<path class="st6" d="M46.3,26.2c0-1.5-1.4-2.8-3.1-2.8c-1.7,0-3.1,1.2-3.1,2.8c0,1.5,1.4,2.8,3.1,2.8C44.9,29,46.3,27.7,46.3,26.2"
		/>
	<path class="st7" d="M24.4,21.6c0,0,2.9-0.7,5.5-0.1c2.6,0.6,5.4,1.8,6.7,7.9c0,0,1.1-6.4,5.7-7.6c4.5-1.2,5.6,0,6.5-0.2"/>
	<polygon class="st8" points="15,6.3 35.1,14.9 35.2,14 	"/>
	<path class="st9" d="M31.3,25.9c0-0.9-0.7-1.7-1.7-1.7c-0.9,0-1.7,0.7-1.7,1.7c0,0.9,0.7,1.7,1.7,1.7
		C30.6,27.6,31.3,26.8,31.3,25.9"/>
	<path class="st9" d="M43.7,25.9c0-0.9-0.7-1.7-1.7-1.7c-0.9,0-1.7,0.7-1.7,1.7c0,0.9,0.7,1.7,1.7,1.7C43,27.6,43.7,26.8,43.7,25.9"
		/>
	<path class="st10" d="M35.8,28.7c0,0-1,1.6-1,2c0.1,0.4,1.6,2.5,1.6,2.5s1.6-2.2,1.7-2.5c0.1-0.3-0.9-2-0.9-2H35.8z"/>
	<g>
		<defs>
			<path id="SVGID_5_" d="M28.4,25.8c0,0.5,0.4,0.8,0.8,0.8c0.5,0,0.8-0.4,0.8-0.8c0-0.5-0.4-0.8-0.8-0.8
				C28.7,24.9,28.4,25.3,28.4,25.8"/>
		</defs>
		<clipPath id="SVGID_6_">
			<use xlink:href="#SVGID_5_"  style="overflow:visible;"/>
		</clipPath>
		<defs>
			<filter id="Adobe_OpacityMaskFilter" filterUnits="userSpaceOnUse" x="28.4" y="24.9" width="1.7" height="1.7">
				<feColorMatrix  type="matrix" values="1 0 0 0 0  0 1 0 0 0  0 0 1 0 0  0 0 0 1 0"/>
			</filter>
		</defs>
		<mask maskUnits="userSpaceOnUse" x="28.4" y="24.9" width="1.7" height="1.7" id="SVGID_7_">
			<g class="st11">
				
					<radialGradient id="SVGID_8_" cx="-170.1453" cy="195.2807" r="0.7558" gradientTransform="matrix(1.1051 0 0 -1.1051 217.2292 241.5785)" gradientUnits="userSpaceOnUse">
					<stop  offset="0" style="stop-color:#FFFFFF"/>
					<stop  offset="1" style="stop-color:#000000"/>
				</radialGradient>
				<rect x="28.4" y="24.9" class="st12" width="1.7" height="1.7"/>
			</g>
		</mask>
		
			<radialGradient id="SVGID_9_" cx="-170.1453" cy="195.2807" r="0.7558" gradientTransform="matrix(1.1051 0 0 -1.1051 217.2292 241.5785)" gradientUnits="userSpaceOnUse">
			<stop  offset="0" style="stop-color:#FFFFFF"/>
			<stop  offset="1" style="stop-color:#8F9194"/>
		</radialGradient>
		<rect x="28.4" y="24.9" class="st13" width="1.7" height="1.7"/>
	</g>
	<g>
		<defs>
			<path id="SVGID_10_" d="M40.5,25.8c0,0.5,0.4,0.8,0.8,0.8c0.5,0,0.8-0.4,0.8-0.8c0-0.5-0.4-0.8-0.8-0.8
				C40.9,24.9,40.5,25.3,40.5,25.8"/>
		</defs>
		<clipPath id="SVGID_11_">
			<use xlink:href="#SVGID_10_"  style="overflow:visible;"/>
		</clipPath>
		<defs>
			<filter id="Adobe_OpacityMaskFilter_1_" filterUnits="userSpaceOnUse" x="40.5" y="24.9" width="1.7" height="1.7">
				<feColorMatrix  type="matrix" values="1 0 0 0 0  0 1 0 0 0  0 0 1 0 0  0 0 0 1 0"/>
			</filter>
		</defs>
		<mask maskUnits="userSpaceOnUse" x="40.5" y="24.9" width="1.7" height="1.7" id="SVGID_12_">
			<g class="st14">
				
					<radialGradient id="SVGID_13_" cx="-173.7034" cy="195.2807" r="0.756" gradientTransform="matrix(1.1051 0 0 -1.1051 233.323 241.5785)" gradientUnits="userSpaceOnUse">
					<stop  offset="0" style="stop-color:#FFFFFF"/>
					<stop  offset="1" style="stop-color:#000000"/>
				</radialGradient>
				<rect x="40.5" y="24.9" class="st15" width="1.7" height="1.7"/>
			</g>
		</mask>
		
			<radialGradient id="SVGID_14_" cx="-173.7035" cy="195.2807" r="0.756" gradientTransform="matrix(1.1051 0 0 -1.1051 233.3231 241.5785)" gradientUnits="userSpaceOnUse">
			<stop  offset="0" style="stop-color:#FFFFFF"/>
			<stop  offset="1" style="stop-color:#8F9194"/>
		</radialGradient>
		<rect x="40.5" y="24.9" class="st16" width="1.7" height="1.7"/>
	</g>
	<g>
		<path class="st17" d="M19.7,16.4c0,0-0.2-0.3-1,1.4c-0.7,1.7-0.5,6.7,0.2,6.7c0.7,0,2.1-1,2.3-1.1c0.2-0.1,0.4-0.7-0.5-1.1
			C19.9,22,19.2,17.6,19.7,16.4"/>
		<polyline class="st18" points="36.7,6.6 19.8,7.9 19.7,15.3 		"/>
		<path class="st17" d="M19.8,13.1c0.5,1,0.5,2.3,0,3.3c0.9-0.1,1.5-0.8,1.5-1.7C21.3,13.9,20.7,13.2,19.8,13.1"/>
	</g>
	<g>
		<defs>
			<polygon id="SVGID_15_" points="24.7,17.9 36.4,21.3 47.2,18.8 47.4,11.3 25.1,10.1 			"/>
		</defs>
		<clipPath id="SVGID_16_">
			<use xlink:href="#SVGID_15_"  style="overflow:visible;"/>
		</clipPath>
		<path class="st19" d="M24.1,14.7c0,0,3.1,5.2,12.4,5.2s11.4-4.3,11.4-4.3"/>
	</g>
	<path class="st0" d="M17.1,52.7c1.5,1.3,2.5,2.9,3,5c0.1,0.4-0.2,0.7-0.6,0.7h-4.4c-0.3,0-0.5-0.2-0.6-0.4
		c-0.3-0.9-0.7-1.7-1.4-2.3c-0.8-0.7-1.8-1-3.1-1c-1,0-1.8,0.2-2.3,0.7C7.3,55.9,7,56.5,7,57.3c0,0.6,0.2,1.2,0.7,1.5
		c0.4,0.4,1,0.7,1.7,0.9c0.7,0.2,1.6,0.5,2.9,0.8c1.8,0.4,3.2,0.8,4.3,1.2c1.1,0.4,2.1,1.1,2.8,2.1c0.8,0.9,1.2,2.2,1.2,3.8
		c0,2-0.8,3.6-2.3,4.8c-1.5,1.2-3.6,1.8-6.3,1.8c-3,0-5.4-0.7-7.2-2c-1.6-1.2-2.7-2.9-3.2-5.1c-0.1-0.4,0.2-0.7,0.6-0.7h4.5
		c0.3,0,0.5,0.2,0.5,0.4c0.2,0.9,0.7,1.7,1.4,2.3c0.9,0.7,2,1,3.4,1c1,0,1.8-0.2,2.3-0.7c0.5-0.5,0.8-1.1,0.8-1.9
		c0-0.7-0.2-1.2-0.7-1.6c-0.5-0.4-1-0.7-1.7-1c-0.7-0.2-1.7-0.5-2.9-0.8c-1.7-0.4-3.1-0.8-4.2-1.2c-1.1-0.4-2-1.1-2.8-1.9
		c-0.8-0.9-1.2-2.1-1.2-3.7c0-2,0.8-3.6,2.3-4.9c1.5-1.3,3.7-1.9,6.4-1.9C13.2,50.5,15.4,51.3,17.1,52.7"/>
	<path class="st10" d="M42.6,52c1.8,0.9,3.2,2.3,4.3,4.1c1,1.8,1.5,3.9,1.5,6.3c0,2.4-0.5,4.5-1.5,6.3c-1,1.8-2.5,3.2-4.3,4.1
		c-1.8,1-3.8,1.4-6.1,1.4c-2.3,0-4.3-0.5-6.1-1.4c-1.8-1-3.2-2.3-4.3-4.1c-1-1.8-1.5-3.9-1.5-6.3c0-2.4,0.5-4.5,1.5-6.3
		c1-1.8,2.4-3.2,4.3-4.1c1.8-0.9,3.8-1.4,6.1-1.4C38.8,50.5,40.8,51,42.6,52 M32.4,57.4c-1.1,1.2-1.7,2.8-1.7,5c0,2.2,0.6,3.9,1.7,5
		c1.1,1.2,2.5,1.7,4.2,1.7c1.6,0,3-0.6,4.2-1.7c1.1-1.2,1.7-2.8,1.7-5c0-2.2-0.6-3.9-1.7-5c-1.1-1.2-2.5-1.7-4.2-1.7
		C34.9,55.6,33.5,56.2,32.4,57.4"/>
	<path class="st0" d="M72.6,52c1.6,0.9,2.8,2.3,3.7,4.1c0.9,1.8,1.3,3.9,1.3,6.3c0,2.4-0.4,4.5-1.3,6.3c-0.9,1.8-2.1,3.2-3.7,4.1
		c-1.6,0.9-3.3,1.4-5.3,1.4c-2,0-3.6-0.5-5-1.4c-0.8-0.5-1.4-1.1-1.9-1.8c-0.3-0.4-1-0.2-1,0.4v13.1c0,0.3-0.3,0.6-0.6,0.6H54
		c-0.3,0-0.6-0.3-0.6-0.6V51.4c0-0.3,0.3-0.6,0.6-0.6h4.8c0.3,0,0.6,0.3,0.6,0.6v2c0,0.5,0.7,0.8,1,0.4c0.5-0.7,1.2-1.3,1.9-1.8
		c1.4-0.9,3-1.4,5-1.4C69.3,50.5,71,51,72.6,52 M61.1,57.5c-1.2,1.2-1.7,2.9-1.7,4.9c0,2,0.6,3.7,1.7,4.9c1.2,1.2,2.6,1.8,4.4,1.8
		c1.8,0,3.3-0.6,4.4-1.8c1.1-1.2,1.7-2.8,1.7-4.9c0-2.1-0.6-3.7-1.7-4.9c-1.1-1.2-2.6-1.8-4.4-1.8C63.7,55.7,62.2,56.3,61.1,57.5"/>
	<path class="st0" d="M102.8,53.1c1.6,1.8,2.4,4.2,2.4,7.4v12.9c0,0.3-0.3,0.6-0.6,0.6h-4.7c-0.3,0-0.6-0.3-0.6-0.6V61.2
		c0-1.8-0.5-3.3-1.4-4.3c-0.9-1-2.2-1.5-3.9-1.5c-1.7,0-3,0.5-4,1.6c-1,1.1-1.5,2.7-1.5,4.7v11.7c0,0.3-0.3,0.6-0.6,0.6h-4.8
		c-0.3,0-0.6-0.3-0.6-0.6V43.6c0-0.3,0.3-0.6,0.6-0.6h4.8c0.3,0,0.6,0.3,0.6,0.6v9.7c0,0.6,0.7,0.8,1,0.3c0.5-0.7,1.2-1.3,2-1.8
		c1.4-0.9,3-1.3,4.9-1.3C99.1,50.5,101.2,51.4,102.8,53.1"/>
	<path class="st0" d="M128.1,52c1.8,0.9,3.2,2.3,4.3,4.1c1,1.8,1.5,3.9,1.5,6.3c0,2.4-0.5,4.5-1.5,6.3c-1,1.8-2.5,3.2-4.3,4.1
		c-1.8,1-3.8,1.4-6.1,1.4c-2.3,0-4.3-0.5-6.1-1.4c-1.8-1-3.2-2.3-4.3-4.1c-1-1.8-1.5-3.9-1.5-6.3c0-2.4,0.5-4.5,1.5-6.3
		c1-1.8,2.4-3.2,4.3-4.1c1.8-0.9,3.8-1.4,6.1-1.4C124.2,50.5,126.3,51,128.1,52 M117.8,57.4c-1.1,1.2-1.7,2.8-1.7,5
		c0,2.2,0.6,3.9,1.7,5c1.1,1.2,2.5,1.7,4.2,1.7c1.6,0,3-0.6,4.2-1.7c1.1-1.2,1.7-2.8,1.7-5c0-2.2-0.6-3.9-1.7-5
		c-1.1-1.2-2.5-1.7-4.2-1.7C120.3,55.6,118.9,56.2,117.8,57.4"/>
	<path class="st0" d="M153.4,52.7c1.5,1.3,2.5,2.9,3,5c0.1,0.4-0.2,0.7-0.6,0.7h-4.4c-0.3,0-0.5-0.2-0.6-0.4
		c-0.3-0.9-0.7-1.7-1.4-2.3c-0.8-0.7-1.8-1-3.1-1c-1,0-1.8,0.2-2.3,0.7c-0.6,0.5-0.8,1.1-0.8,1.9c0,0.6,0.2,1.2,0.7,1.5
		c0.4,0.4,1,0.7,1.7,0.9c0.7,0.2,1.6,0.5,2.9,0.8c1.8,0.4,3.2,0.8,4.3,1.2c1.1,0.4,2.1,1.1,2.8,2.1c0.8,0.9,1.2,2.2,1.2,3.8
		c0,2-0.8,3.6-2.3,4.8c-1.5,1.2-3.6,1.8-6.3,1.8c-3,0-5.4-0.7-7.2-2c-1.6-1.2-2.7-2.9-3.2-5.1c-0.1-0.4,0.2-0.7,0.6-0.7h4.5
		c0.3,0,0.5,0.2,0.5,0.4c0.2,0.9,0.7,1.7,1.4,2.3c0.9,0.7,2,1,3.4,1c1,0,1.8-0.2,2.3-0.7c0.5-0.5,0.8-1.1,0.8-1.9
		c0-0.7-0.2-1.2-0.7-1.6c-0.5-0.4-1-0.7-1.7-1c-0.7-0.2-1.7-0.5-2.9-0.8c-1.7-0.4-3.1-0.8-4.2-1.2c-1.1-0.4-2-1.1-2.8-1.9
		s-1.2-2.1-1.2-3.7c0-2,0.8-3.6,2.3-4.9c1.5-1.3,3.7-1.9,6.4-1.9C149.5,50.5,151.7,51.3,153.4,52.7"/>
	<path class="st0" d="M168,51.4v22.1c0,0.3-0.3,0.6-0.6,0.6h-4.8c-0.3,0-0.6-0.3-0.6-0.6V51.4c0-0.3,0.3-0.6,0.6-0.6h4.8
		C167.8,50.8,168,51.1,168,51.4"/>
	<path class="st20" d="M44.2,53.5L39.3,52c-0.4-0.1-0.6-0.5-0.4-0.9l0.2-0.6c0.1-0.4,0.6-0.6,0.9-0.4l4.7,2.2
		c0.3,0.2,0.5,0.5,0.4,0.9C44.9,53.5,44.5,53.6,44.2,53.5"/>
	<path class="st21" d="M40.5,52c0.1-0.3-0.1-0.5-0.4-0.6c-0.3-0.1-0.5,0.1-0.6,0.4c0,0.2,0,0.7,0.1,1.2c0,0.1,0.2,0.1,0.2,0
		C40.2,52.6,40.4,52.2,40.5,52"/>
	<path class="st21" d="M42.3,52.5c0.1-0.2,0-0.5-0.2-0.6c-0.2-0.1-0.5,0-0.6,0.2c-0.1,0.2-0.1,0.6-0.1,1.1c0,0.1,0.1,0.1,0.2,0.1
		C42,53,42.3,52.7,42.3,52.5"/>
	<path class="st21" d="M44,53.4c0.1-0.2,0.1-0.4-0.1-0.5c-0.2-0.1-0.4-0.1-0.5,0.1c-0.1,0.1-0.2,0.5-0.3,0.9c0,0.1,0.1,0.1,0.1,0.1
		C43.6,53.7,43.9,53.5,44,53.4"/>
	<path class="st20" d="M28.9,53.6l4.9-1.5c0.4-0.1,0.6-0.5,0.4-0.9L34,50.5c-0.1-0.4-0.6-0.6-0.9-0.4l-4.7,2.2
		c-0.3,0.2-0.5,0.5-0.4,0.9C28.2,53.5,28.6,53.7,28.9,53.6"/>
	<path class="st21" d="M32.6,52c-0.1-0.3,0.1-0.5,0.4-0.6c0.3-0.1,0.5,0.1,0.6,0.4c0,0.2,0,0.7-0.1,1.2c0,0.1-0.2,0.1-0.2,0
		C32.9,52.7,32.7,52.2,32.6,52"/>
	<path class="st21" d="M30.8,52.5c-0.1-0.2,0-0.5,0.2-0.6c0.2-0.1,0.5,0,0.6,0.2c0.1,0.2,0.1,0.6,0.1,1.1c0,0.1-0.1,0.1-0.2,0.1
		C31.1,53,30.8,52.7,30.8,52.5"/>
	<path class="st21" d="M29.1,53.4c-0.1-0.2-0.1-0.4,0.1-0.5c0.2-0.1,0.4-0.1,0.5,0.1c0.1,0.1,0.2,0.5,0.3,0.9c0,0.1-0.1,0.1-0.1,0.1
		C29.5,53.7,29.2,53.5,29.1,53.4"/>
	<path class="st22" d="M168.7,42.7c0-2-1.6-3.6-3.6-3.6c-2,0-3.6,1.6-3.6,3.6c0,2,1.6,3.6,3.6,3.6C167.1,46.3,168.7,44.7,168.7,42.7
		"/>
</g>
</svg>
