<?xml version="1.0" encoding="utf-8"?>
<!-- Generator: Adobe Illustrator 22.0.1, SVG Export Plug-In . SVG Version: 6.00 Build 0)  -->
<svg version="1.1" id="Layer_1" xmlns="http://www.w3.org/2000/svg" xmlns:xlink="http://www.w3.org/1999/xlink" x="0px" y="0px"
	 viewBox="0 0 19.3 15.7" style="enable-background:new 0 0 19.3 15.7;" xml:space="preserve">
<style type="text/css">
	.st0{fill:#ECB71A;}
</style>
<path class="st0" d="M19.3,1.9c-0.5,0.8-1.2,1.5-2,2.1c0,0.1,0,0.3,0,0.5c0,1.1-0.2,2.1-0.5,3.2s-0.8,2.1-1.4,3.1s-1.4,1.8-2.3,2.6
	s-1.9,1.3-3.2,1.8c-1.2,0.4-2.6,0.7-4,0.7c-2.2,0-4.2-0.6-6.1-1.8c0.3,0,0.6,0,1,0c1.8,0,3.5-0.6,4.9-1.7c-0.9,0-1.6-0.3-2.3-0.8
	c-0.7-0.5-1.1-1.2-1.4-2c0.3,0,0.5,0.1,0.7,0.1c0.4,0,0.7,0,1-0.1C3,9.3,2.3,8.8,1.7,8.1S0.8,6.5,0.8,5.6v0C1.3,5.8,1.9,6,2.6,6
	C2,5.7,1.6,5.2,1.3,4.6C1,4,0.8,3.4,0.8,2.7c0-0.7,0.2-1.4,0.5-2c1,1.2,2.2,2.2,3.6,2.9c1.4,0.7,2.9,1.1,4.6,1.2
	C9.5,4.6,9.4,4.3,9.4,4c0-1.1,0.4-2,1.2-2.8S12.3,0,13.4,0c1.1,0,2.1,0.4,2.9,1.3c0.9-0.2,1.7-0.5,2.5-1c-0.3,0.9-0.9,1.7-1.7,2.2
	C17.8,2.4,18.6,2.2,19.3,1.9z"/>
</svg>
